# xmcd
#
# Track frame offsets: 
#        150
#        12867
#        25556
#        37119
#        49864
#        64504
#        77388
#        92641
#        104891
#        120211
#        134259
#        148234
#        163146
#        175724
#        186294
#        197164
#        209663
#        221516
#        232701
#        247151
#        262061
#        274666
#        286791
#        296777
#        309107
#        323269
#        335406
#
# Disc length: 4648 seconds
#
# Revision: 0
# Processed by: cddbd v1.5.2PL0 Copyright (c) Steve Scherf et al.
# Submitted via: ExactAudioCopy v0.95b3
#
DISCID=8612261b
DTITLE=Elmore James - An Introduction to
DYEAR=1900
DGENRE=Blues
TTITLE0=Dust My Broom
TTITLE1=Hand in Hand
TTITLE2=Rock My Baby Right
TTITLE3=Baby What's Wrong
TTITLE4=I Believe
TTITLE5=Sinful Woman
TTITLE6=I Held My Baby Last Night
TTITLE7=Country Boogie
TTITLE8=My Best Friend
TTITLE9=I See My Baby
TTITLE10=She Just Won't Do Right
TTITLE11=Whose Muddy Shoes
TTITLE12=Early in the Morning
TTITLE13=Hawaiin Boogie, pt.2
TTITLE14=Can't Stop Lovin'
TTITLE15=Make A Little Love
TTITLE16=Make My Dreams Come True
TTITLE17=Strange Kinda Feeling
TTITLE18=1839 Blues
TTITLE19=Sunnyland
TTITLE20=Standing at the Crossroads
TTITLE21=Late Hours at Midnight
TTITLE22=Mean and Evil
TTITLE23=Happy Home
TTITLE24=Dust My Blues
TTITLE25=Blues Before Sunrise
TTITLE26=Goddbye Baby
EXTD=
EXTT0=
EXTT1=
EXTT2=
EXTT3=
EXTT4=
EXTT5=
EXTT6=
EXTT7=
EXTT8=
EXTT9=
EXTT10=
EXTT11=
EXTT12=
EXTT13=
EXTT14=
EXTT15=
EXTT16=
EXTT17=
EXTT18=
EXTT19=
EXTT20=
EXTT21=
EXTT22=
EXTT23=
EXTT24=
EXTT25=
EXTT26=
PLAYORDER=
